<svg xmlns="http://www.w3.org/2000/svg" width="1500" height="2700" viewBox="0 0 750 1350" style="font-family:'Segoe UI',Arial,sans-serif;background:#fff">
<style>
text{fill:#3d3d3a}
.th{font-size:13px;font-weight:500}
.ts{font-size:10.5px;fill:#73726c}
.tx{font-size:9.5px;fill:#73726c}
.tlib{font-size:8.5px;font-weight:500}
.arr-red{stroke:#DC2626;stroke-width:2.2}
.arr-yellow{stroke:#D97706;stroke-width:1.8}
.arr-green{stroke:#16A34A;stroke-width:1.5}
.arr{stroke:#73726c;stroke-width:1.5}
.c-coral rect{fill:#FAECE7;stroke:#993C1D;stroke-width:0.5}
.c-coral .th{fill:#712B13}.c-coral .ts{fill:#993C1D}
.c-purple rect{fill:#EEEDFE;stroke:#534AB7;stroke-width:0.5}
.c-purple .th{fill:#3C3489}.c-purple .ts{fill:#534AB7}
.c-teal rect{fill:#E1F5EE;stroke:#0F6E56;stroke-width:0.5}
.c-teal .th{fill:#085041}.c-teal .ts{fill:#0F6E56}
.c-blue rect{fill:#E6F1FB;stroke:#185FA5;stroke-width:0.5}
.c-blue .th{fill:#0C447C}.c-blue .ts{fill:#185FA5}
.c-dbk rect{fill:#FFF3E6;stroke:#E8590C;stroke-width:0.6}
.c-dbk .th{fill:#C2410C}.c-dbk .ts{fill:#E8590C}
.c-amber rect{fill:#FAEEDA;stroke:#854F0B;stroke-width:0.5}
.c-amber .th{fill:#633806}.c-amber .ts{fill:#854F0B}
.c-pink rect{fill:#FBEAF0;stroke:#993556;stroke-width:0.5}
.c-pink .th{fill:#72243E}.c-pink .ts{fill:#993556}
.c-green rect{fill:#EAF3DE;stroke:#3B6D11;stroke-width:0.5}
.c-green .th{fill:#27500A}.c-green .ts{fill:#3B6D11}
.c-gray rect{fill:#F1EFE8;stroke:#5F5E5A;stroke-width:0.5}
.c-gray .th{fill:#444441}.c-gray .ts{fill:#5F5E5A}
.c-red rect{fill:#FCE4EC;stroke:#C00000;stroke-width:0.6}
.c-red .th{fill:#8B0000}.c-red .ts{fill:#C00000}
.silver-box rect{fill:#F0F4FF;stroke:#3366AA;stroke-width:0.4}
.silver-box .th{fill:#1a3a6a;font-size:10px}
</style>
<defs>
<marker id="arrow" viewBox="0 0 10 10" refX="8" refY="5" markerWidth="6" markerHeight="6" orient="auto-start-reverse"><path d="M2 1L8 5L2 9" fill="none" stroke="#73726c" stroke-width="1.5" stroke-linecap="round" stroke-linejoin="round"/></marker>
<marker id="arrowRed" viewBox="0 0 10 10" refX="8" refY="5" markerWidth="7" markerHeight="7" orient="auto-start-reverse"><path d="M2 1L8 5L2 9" fill="none" stroke="#DC2626" stroke-width="1.8" stroke-linecap="round" stroke-linejoin="round"/></marker>
<marker id="arrowYellow" viewBox="0 0 10 10" refX="8" refY="5" markerWidth="6" markerHeight="6" orient="auto-start-reverse"><path d="M2 1L8 5L2 9" fill="none" stroke="#D97706" stroke-width="1.5" stroke-linecap="round" stroke-linejoin="round"/></marker>
<marker id="arrowGreen" viewBox="0 0 10 10" refX="8" refY="5" markerWidth="6" markerHeight="6" orient="auto-start-reverse"><path d="M2 1L8 5L2 9" fill="none" stroke="#16A34A" stroke-width="1.5" stroke-linecap="round" stroke-linejoin="round"/></marker>
</defs>

<!-- ═══ TITLE ═══ -->
<text x="375" y="22" text-anchor="middle" font-size="16" font-weight="600" fill="#1B3A5C">PETROVA — Production-Grade Data Platform (400K+ Records/Day)</text>
<text class="ts" x="375" y="38" text-anchor="middle" opacity="0.6">PySpark 3.5.3 · Delta Lake 3.2.1 · Snowflake · Databricks · Airflow 2.9.3 · dbt 1.8.7 · dbt Cloud Studio</text>

<!-- ═══ LEGEND ═══ -->
<rect x="540" y="44" width="200" height="52" rx="6" fill="#FAFAFA" stroke="#E0E0E0" stroke-width="0.5"/>
<text x="550" y="58" font-size="9" font-weight="600" fill="#333">Connection Priority:</text>
<line x1="550" y1="70" x2="580" y2="70" class="arr-red" marker-end="url(#arrowRed)"/>
<text x="588" y="74" font-size="8.5" fill="#DC2626" font-weight="500">CRITICAL (core pipeline)</text>
<line x1="550" y1="82" x2="580" y2="82" class="arr-yellow" marker-end="url(#arrowYellow)"/>
<text x="588" y="86" font-size="8.5" fill="#D97706" font-weight="500">MEDIUM (quality/orchestration)</text>
<line x1="550" y1="94" x2="580" y2="94" class="arr-green" marker-end="url(#arrowGreen)"/>
<text x="588" y="98" font-size="8.5" fill="#16A34A" font-weight="500">STANDARD (analytics/monitoring)</text>

<!-- ═══ LAYER 1: DATA SOURCES ═══ -->
<text class="th" x="42" y="118">Layer 1: Data Sources</text>
<g class="c-coral"><rect x="36" y="126" width="155" height="44" rx="4"/><text class="th" x="114" y="142" text-anchor="middle" dominant-baseline="central">IoT Sensors</text><text class="ts" x="114" y="158" text-anchor="middle" dominant-baseline="central">Parquet, 400K+/day</text></g>
<g class="c-coral"><rect x="203" y="126" width="155" height="44" rx="4"/><text class="th" x="281" y="142" text-anchor="middle" dominant-baseline="central">SAP ERP</text><text class="ts" x="281" y="158" text-anchor="middle" dominant-baseline="central">BODS batch 2AM</text></g>
<g class="c-coral"><rect x="370" y="126" width="155" height="44" rx="4"/><text class="th" x="448" y="142" text-anchor="middle" dominant-baseline="central">Equipment Registry</text><text class="ts" x="448" y="158" text-anchor="middle" dominant-baseline="central">Master data</text></g>
<g class="c-coral"><rect x="537" y="126" width="155" height="44" rx="4"/><text class="th" x="615" y="142" text-anchor="middle" dominant-baseline="central">SQL Server</text><text class="ts" x="615" y="158" text-anchor="middle" dominant-baseline="central">OLTP on-prem</text></g>

<!-- RED arrows: Source → Ingestion -->
<line x1="114" y1="170" x2="114" y2="208" class="arr-red" marker-end="url(#arrowRed)"/>
<text class="tlib" x="126" y="192" fill="#DC2626">pyarrow</text>
<line x1="281" y1="170" x2="281" y2="208" class="arr-red" marker-end="url(#arrowRed)"/>
<text class="tlib" x="293" y="192" fill="#DC2626">pyrfc</text>
<line x1="448" y1="170" x2="448" y2="208" class="arr-red" marker-end="url(#arrowRed)"/>
<text class="tlib" x="460" y="192" fill="#DC2626">pandas</text>
<line x1="615" y1="170" x2="615" y2="208" class="arr-red" marker-end="url(#arrowRed)"/>
<text class="tlib" x="627" y="192" fill="#DC2626">pyodbc</text>

<!-- ═══ LAYER 2: INGESTION ═══ -->
<text class="th" x="42" y="208">Layer 2: Ingestion &amp; Extraction</text>
<g class="c-purple"><rect x="36" y="216" width="220" height="50" rx="4"/><text class="th" x="146" y="234" text-anchor="middle" dominant-baseline="central">Auto Loader (cloudFiles)</text><text class="ts" x="146" y="250" text-anchor="middle" dominant-baseline="central">Schema inference + rescue col</text></g>
<g class="c-purple"><rect x="268" y="216" width="220" height="50" rx="4"/><text class="th" x="378" y="234" text-anchor="middle" dominant-baseline="central">ADF + COPY INTO</text><text class="ts" x="378" y="250" text-anchor="middle" dominant-baseline="central">CSV→Parquet, Snowpipe</text></g>
<g class="c-purple"><rect x="500" y="216" width="200" height="50" rx="4"/><text class="th" x="600" y="234" text-anchor="middle" dominant-baseline="central">SSIS + SAP BODS</text><text class="ts" x="600" y="250" text-anchor="middle" dominant-baseline="central">C# validation, 8 patterns</text></g>

<!-- RED arrows: ALL Ingestion → Bronze ONLY -->
<line x1="146" y1="266" x2="138" y2="306" class="arr-red" marker-end="url(#arrowRed)"/>
<text class="tlib" x="120" y="286" fill="#DC2626">pyspark.sql</text>
<line x1="378" y1="266" x2="168" y2="306" class="arr-red" marker-end="url(#arrowRed)"/>
<text class="tlib" x="290" y="278" fill="#DC2626">snowflake-connector</text>
<line x1="600" y1="266" x2="198" y2="306" class="arr-red" marker-end="url(#arrowRed)"/>
<text class="tlib" x="430" y="270" fill="#DC2626">sqlalchemy</text>

<!-- ═══ LAYER 3: MEDALLION ARCHITECTURE (contains Silver with gates) ═══ -->
<text class="th" x="42" y="296">Layer 3: Medallion Architecture — Bronze → Silver (10 Cleaning Logics) → Gold</text>

<!-- Outer medallion container -->
<g class="c-teal"><rect x="24" y="302" width="704" height="350" rx="10"/></g>
<text class="tx" x="376" y="316" text-anchor="middle" opacity="0.7">Databricks (Delta Lake) + Snowflake (PETROVA_DW) — Dual-platform hybrid</text>

<!-- BRONZE box (compact, left) -->
<g class="c-gray"><rect x="34" y="324" width="120" height="52" rx="4"/><text class="th" x="94" y="342" text-anchor="middle" dominant-baseline="central">BRONZE</text><text class="ts" x="94" y="358" text-anchor="middle" dominant-baseline="central">5 staging views</text></g>

<!-- RED arrow: Bronze → Silver area -->
<line x1="154" y1="350" x2="170" y2="350" class="arr-red" marker-end="url(#arrowRed)"/>
<text class="tlib" x="152" y="342" fill="#DC2626">dbt run</text>

<!-- ══ SILVER EXPANDED AREA (contains 3 gates with 10 logics) ══ -->
<rect x="172" y="324" width="410" height="316" rx="8" fill="#E6F1FB" stroke="#185FA5" stroke-width="0.8"/>
<text x="377" y="340" text-anchor="middle" font-size="12" font-weight="600" fill="#0C447C">SILVER (Cleaned) — 3-Gate Validation · 10 Logics · SCD2</text>

<!-- Gate 1: Schema & Type (#1-3) -->
<g class="c-red"><rect x="182" y="348" width="390" height="56" rx="4"/></g>
<text x="188" y="364" font-size="10" font-weight="600" fill="#8B0000">GATE 1: Schema &amp; Type</text>
<g class="silver-box"><rect x="188" y="370" width="120" height="26" rx="3"/><text class="th" x="196" y="386" dominant-baseline="central">#1 Null Flagging</text></g>
<g class="silver-box"><rect x="316" y="370" width="120" height="26" rx="3"/><text class="th" x="324" y="386" dominant-baseline="central">#2 Type Casting</text></g>
<g class="silver-box"><rect x="444" y="370" width="120" height="26" rx="3"/><text class="th" x="452" y="386" dominant-baseline="central">#3 Range Check</text></g>

<!-- RED arrow Gate 1 → Gate 2 -->
<line x1="377" y1="404" x2="377" y2="414" class="arr-red" marker-end="url(#arrowRed)"/>

<!-- Gate 2: Business Rules (#4-7) -->
<g class="c-red"><rect x="182" y="414" width="390" height="70" rx="4"/></g>
<text x="188" y="430" font-size="10" font-weight="600" fill="#8B0000">GATE 2: Business Rules</text>
<g class="silver-box"><rect x="188" y="436" width="92" height="26" rx="3"/><text class="th" x="196" y="452" dominant-baseline="central">#4 Filter</text></g>
<g class="silver-box"><rect x="286" y="436" width="92" height="26" rx="3"/><text class="th" x="294" y="452" dominant-baseline="central">#5 Dedup</text></g>
<g class="silver-box"><rect x="384" y="436" width="92" height="26" rx="3"/><text class="th" x="392" y="452" dominant-baseline="central">#6 Derive</text></g>
<g class="silver-box"><rect x="478" y="436" width="86" height="26" rx="3"/><text class="th" x="486" y="452" dominant-baseline="central">#7 SCD2</text></g>
<text class="tx" x="377" y="476" text-anchor="middle" fill="#854F0B">ROW_NUMBER · MERGE · withColumn · quality_flag = PASS|WARN|FAIL</text>

<!-- RED arrow Gate 2 → Gate 3 -->
<line x1="377" y1="484" x2="377" y2="494" class="arr-red" marker-end="url(#arrowRed)"/>

<!-- Gate 3: Cross-Table (#8-10) -->
<g class="c-red"><rect x="182" y="494" width="390" height="56" rx="4"/></g>
<text x="188" y="510" font-size="10" font-weight="600" fill="#8B0000">GATE 3: Cross-Table Validation</text>
<g class="silver-box"><rect x="188" y="516" width="120" height="26" rx="3"/><text class="th" x="196" y="532" dominant-baseline="central">#8 Ref Integrity</text></g>
<g class="silver-box"><rect x="316" y="516" width="120" height="26" rx="3"/><text class="th" x="324" y="532" dominant-baseline="central">#9 Agg Guards</text></g>
<g class="silver-box"><rect x="444" y="516" width="120" height="26" rx="3"/><text class="th" x="452" y="532" dominant-baseline="central">#10 Late Data</text></g>

<!-- Silver summary -->
<text class="tx" x="377" y="562" text-anchor="middle" fill="#0C447C">5 intermediate models · incremental · great_expectations + dbt test</text>
<text class="tx" x="377" y="574" text-anchor="middle" fill="#16A34A" font-weight="500">Output: Only PASS/WARN records promoted to Gold</text>

<!-- Compute labels inside Silver -->
<text class="tx" x="377" y="590" text-anchor="middle" fill="#854F0B" font-style="italic">Gate 1→PySpark · Gate 2→PySpark+dbt · Gate 3→dbt test+Streaming</text>

<!-- YELLOW arrow: Silver output → join point -->
<line x1="377" y1="600" x2="377" y2="616" class="arr-yellow" marker-end="url(#arrowYellow)"/>

<!-- Small join connector to Gold input (Silver output feeds horizontally to Gold) -->
<line x1="377" y1="616" x2="596" y2="616" class="arr-red" stroke-dasharray="4,3"/>
<line x1="596" y1="616" x2="596" y2="642" class="arr-red" marker-end="url(#arrowRed)"/>
<text class="tlib" x="480" y="612" fill="#DC2626">dbt run (PASS/WARN only)</text>

<!-- GOLD box (compact, bottom-right of medallion) -->
<rect x="594" y="324" width="124" height="52" rx="4" fill="#FFF8E1" stroke="#B8860B" stroke-width="0.7"/>
<text x="656" y="342" text-anchor="middle" font-size="12" font-weight="600" fill="#8B6914">GOLD</text>
<text class="ts" x="656" y="358" text-anchor="middle" fill="#8B6914">3 facts · 3 dims</text>

<!-- Gold detail: SPC + RBAC -->
<rect x="594" y="378" width="124" height="58" rx="4" fill="#FFF8E1" stroke="#B8860B" stroke-width="0.5"/>
<text x="656" y="394" text-anchor="middle" font-size="9" font-weight="500" fill="#8B6914">SPC Alert Engine</text>
<text class="tx" x="656" y="408" text-anchor="middle" fill="#8B6914">6 alerts from</text>
<text class="tx" x="656" y="420" text-anchor="middle" fill="#8B6914">STDDEV+LAG+THR</text>
<text class="tx" x="656" y="432" text-anchor="middle" fill="#DC2626" font-weight="500">CRITICAL/WARN/OK</text>

<!-- Gold: RBAC badge -->
<rect x="594" y="440" width="124" height="24" rx="3" fill="#F1EFE8" stroke="#5F5E5A" stroke-width="0.4"/>
<text x="656" y="456" text-anchor="middle" font-size="8.5" font-weight="500" fill="#444441">RBAC · Immutable · MERGE</text>

<!-- RED arrow: Gold → Layer 4 (Compute) -->
<line x1="656" y1="652" x2="656" y2="680" class="arr-red" marker-end="url(#arrowRed)"/>
<text class="tlib" x="664" y="668" fill="#DC2626">output</text>

<!-- ═══ LAYER 4: COMPUTE ENGINES ═══ -->
<text class="th" x="42" y="674">Layer 4: Compute Engines</text>

<!-- Databricks — prominent -->
<g class="c-dbk"><rect x="36" y="682" width="240" height="56" rx="6"/><text class="th" x="156" y="700" text-anchor="middle" dominant-baseline="central" font-size="14">Databricks</text><text class="ts" x="156" y="718" text-anchor="middle" dominant-baseline="central">Unity Catalog · DLT · Workflows</text><text class="tx" x="156" y="732" text-anchor="middle" fill="#E8590C">Runtime 15.4 LTS · Photon</text></g>

<!-- PySpark -->
<g class="c-blue"><rect x="288" y="682" width="190" height="56" rx="4"/><text class="th" x="383" y="700" text-anchor="middle" dominant-baseline="central">PySpark 3.5.3</text><text class="ts" x="383" y="718" text-anchor="middle" dominant-baseline="central">Delta Lake 3.2.1</text><text class="tx" x="383" y="732" text-anchor="middle">OPTIMIZE · ZORDER</text></g>

<!-- dbt -->
<g class="c-blue"><rect x="490" y="682" width="230" height="56" rx="4"/><text class="th" x="605" y="700" text-anchor="middle" dominant-baseline="central">dbt Core 1.8.7</text><text class="ts" x="605" y="718" text-anchor="middle" dominant-baseline="central">16 models · 4 macros</text><text class="tx" x="605" y="732" text-anchor="middle">dbt Cloud Studio · dbt-snowflake</text></g>

<!-- Python Libraries Box -->
<rect x="36" y="744" width="684" height="26" rx="4" fill="#FFF8F0" stroke="#E8590C" stroke-width="0.4"/>
<text x="375" y="761" text-anchor="middle" font-size="8.5" fill="#C2410C" font-weight="500">pyspark · delta-spark · dbt-core · great-expectations · pandas · pyarrow · snowflake-connector-python · pyodbc · sqlalchemy · streamlit · plotly</text>

<!-- YELLOW arrows to Orchestration -->
<line x1="156" y1="770" x2="156" y2="800" class="arr-yellow" marker-end="url(#arrowYellow)"/>
<text class="tlib" x="168" y="788" fill="#D97706">databricks-sdk</text>
<line x1="383" y1="770" x2="383" y2="800" class="arr-yellow" marker-end="url(#arrowYellow)"/>
<text class="tlib" x="395" y="788" fill="#D97706">apache-airflow</text>
<line x1="605" y1="770" x2="605" y2="800" class="arr-yellow" marker-end="url(#arrowYellow)"/>
<text class="tlib" x="617" y="788" fill="#D97706">dbt-runner</text>

<!-- ═══ LAYER 5: ORCHESTRATION ═══ -->
<text class="th" x="42" y="798">Layer 5: Orchestration</text>
<g class="c-pink"><rect x="36" y="806" width="220" height="46" rx="4"/><text class="th" x="146" y="822" text-anchor="middle" dominant-baseline="central">Apache Airflow 2.9.3</text><text class="ts" x="146" y="838" text-anchor="middle" dominant-baseline="central">Docker · DAGs · XCom · Sensors</text></g>
<g class="c-pink"><rect x="268" y="806" width="220" height="46" rx="4"/><text class="th" x="378" y="822" text-anchor="middle" dominant-baseline="central">ADF Pipelines</text><text class="ts" x="378" y="838" text-anchor="middle" dominant-baseline="central">Event triggers · Blob ingest</text></g>
<g class="c-pink"><rect x="500" y="806" width="220" height="46" rx="4"/><text class="th" x="610" y="822" text-anchor="middle" dominant-baseline="central">Databricks Workflows</text><text class="ts" x="610" y="838" text-anchor="middle" dominant-baseline="central">Job clusters · JSON config</text></g>

<!-- GREEN arrows to Analytics -->
<line x1="146" y1="852" x2="146" y2="884" class="arr-green" marker-end="url(#arrowGreen)"/>
<text class="tlib" x="158" y="872" fill="#16A34A">streamlit</text>
<line x1="378" y1="852" x2="378" y2="884" class="arr-green" marker-end="url(#arrowGreen)"/>
<text class="tlib" x="390" y="872" fill="#16A34A">snowpark</text>
<line x1="610" y1="852" x2="610" y2="884" class="arr-green" marker-end="url(#arrowGreen)"/>
<text class="tlib" x="622" y="872" fill="#16A34A">plotly</text>

<!-- ═══ LAYER 6: ANALYTICS ═══ -->
<text class="th" x="42" y="882">Layer 6: Analytics &amp; Reporting</text>
<g class="c-blue"><rect x="36" y="890" width="160" height="42" rx="4"/><text class="th" x="116" y="906" text-anchor="middle" dominant-baseline="central">Power BI</text><text class="ts" x="116" y="920" text-anchor="middle" dominant-baseline="central">8 DAX KPIs · RLS</text></g>
<g class="c-blue"><rect x="208" y="890" width="160" height="42" rx="4"/><text class="th" x="288" y="906" text-anchor="middle" dominant-baseline="central">Streamlit</text><text class="ts" x="288" y="920" text-anchor="middle" dominant-baseline="central">Real-time dashboard</text></g>
<g class="c-blue"><rect x="380" y="890" width="160" height="42" rx="4"/><text class="th" x="460" y="906" text-anchor="middle" dominant-baseline="central">dbt Cloud Studio</text><text class="ts" x="460" y="920" text-anchor="middle" dominant-baseline="central">IDE · Lineage · Docs</text></g>
<g class="c-blue"><rect x="552" y="890" width="160" height="42" rx="4"/><text class="th" x="632" y="906" text-anchor="middle" dominant-baseline="central">Jupyter / Spark UI</text><text class="ts" x="632" y="920" text-anchor="middle" dominant-baseline="central">Dev + monitoring</text></g>

<!-- GREEN arrow to Monitoring -->
<line x1="375" y1="932" x2="375" y2="958" class="arr-green" marker-end="url(#arrowGreen)"/>
<text class="tlib" x="387" y="948" fill="#16A34A">alertmanager / smtp</text>

<!-- ═══ LAYER 7: MONITORING ═══ -->
<text class="th" x="42" y="956">Layer 7: Monitoring &amp; Alerting</text>
<g class="c-green"><rect x="36" y="964" width="220" height="42" rx="4"/><text class="th" x="146" y="980" text-anchor="middle" dominant-baseline="central">PagerDuty</text><text class="ts" x="146" y="994" text-anchor="middle" dominant-baseline="central">30-min escalation chain</text></g>
<g class="c-green"><rect x="268" y="964" width="220" height="42" rx="4"/><text class="th" x="378" y="980" text-anchor="middle" dominant-baseline="central">Azure Monitor</text><text class="ts" x="378" y="994" text-anchor="middle" dominant-baseline="central">5-min health checks</text></g>
<g class="c-green"><rect x="500" y="964" width="220" height="42" rx="4"/><text class="th" x="610" y="980" text-anchor="middle" dominant-baseline="central">GitHub Actions CI</text><text class="ts" x="610" y="994" text-anchor="middle" dominant-baseline="central">SQLFluff + dbt test + lint</text></g>

<!-- GREEN arrow to Security -->
<line x1="375" y1="1006" x2="375" y2="1030" class="arr-green" marker-end="url(#arrowGreen)"/>

<!-- ═══ LAYER 8: SECURITY ═══ -->
<text class="th" x="42" y="1028">Layer 8: Security &amp; Governance</text>
<g class="c-gray"><rect x="24" y="1036" width="704" height="40" rx="8"/><text class="th" x="376" y="1052" text-anchor="middle" dominant-baseline="central">RBAC (4 roles) · Gold 7 Commandments · Unity Catalog · Key Vault · AES-256 · TLS 1.2+</text><text class="tx" x="376" y="1066" text-anchor="middle" opacity="0.7">PETROVA_ADMIN &gt; PETROVA_ENGINEER &gt; PETROVA_ANALYST &gt; PETROVA_READER</text></g>

<!-- ═══ LAYER 9: LOCAL DEV ═══ -->
<text class="th" x="42" y="1098">Layer 9: Local Development Stack (Docker Compose)</text>
<g class="c-gray"><rect x="24" y="1106" width="704" height="40" rx="8"/>
<text class="th" x="115" y="1122" text-anchor="middle" dominant-baseline="central">PostgreSQL 15</text>
<text class="th" x="280" y="1122" text-anchor="middle" dominant-baseline="central">Airflow UI :8080</text>
<text class="th" x="445" y="1122" text-anchor="middle" dominant-baseline="central">Jupyter :8888</text>
<text class="th" x="610" y="1122" text-anchor="middle" dominant-baseline="central">Spark UI :4040</text>
<text class="tx" x="376" y="1138" text-anchor="middle" opacity="0.7">quay.io/jupyter/pyspark-notebook:spark-3.5.3 · apache/airflow:2.9.3 · Delta Lake OSS 3.2.1</text>
</g>

<!-- ═══ LAYER 10: QUERY PERFORMANCE ═══ -->
<text class="th" x="42" y="1170">Layer 10: Query Performance &amp; Optimization</text>
<rect x="24" y="1178" width="704" height="44" rx="8" fill="#FFF8E1" stroke="#B8860B" stroke-width="0.5"/>
<text x="376" y="1194" text-anchor="middle" font-size="9.5" font-weight="500" fill="#8B6914">Incremental models (Silver) · Surrogate keys (dbt_utils) · Partition pruning · ZORDER clustering</text>
<text class="tx" x="376" y="1210" text-anchor="middle" fill="#854F0B">Window functions (LAG/ROW_NUMBER) · NULLIF division safety · COALESCE null handling · SPC composite scoring</text>

<!-- ═══ CERTIFICATION BADGES ═══ -->
<text class="th" x="42" y="1242">Certification Alignment</text>
<g class="c-dbk"><rect x="30" y="1248" width="216" height="26" rx="4"/><text class="tx" x="138" y="1264" text-anchor="middle" dominant-baseline="central" fill="#C2410C" font-weight="500">Databricks DE Associate</text></g>
<g class="c-teal"><rect x="254" y="1248" width="216" height="26" rx="4"/><text class="tx" x="362" y="1264" text-anchor="middle" dominant-baseline="central" fill="#085041" font-weight="500">SnowPro Core (COF-C03)</text></g>
<g class="c-purple"><rect x="478" y="1248" width="234" height="26" rx="4"/><text class="tx" x="595" y="1264" text-anchor="middle" dominant-baseline="central" fill="#3C3489" font-weight="500">dbt Analytics Engineer</text></g>

<!-- ═══ BOTTOM: Python Ecosystem ═══ -->
<rect x="24" y="1286" width="704" height="30" rx="6" fill="#1B2A4A"/>
<text x="376" y="1304" text-anchor="middle" font-size="9" fill="#FFFFFF" font-weight="500">Python 3.11 · pip · venv · Docker Compose · Git · GitHub Actions · VS Code · pre-commit · SQLFluff · black · ruff</text>
</svg>
